<?xml version="1.0" encoding="utf-8"?>
<!-- Scroll Down icon by Arthur Shlain from Usefulicons.com -->
<svg xmlns="http://www.w3.org/2000/svg" xmlns:xlink="http://www.w3.org/1999/xlink" xml:space="preserve" version="1.1" x="0px" y="0px" viewBox="0 0 100 100" width="400px" height="400px"><g style="fill: #ffffff"><path d="M50,5C33.458,5,20,18.458,20,35L20,65C20,81.542,33.458,95,50,95S80,81.542,80,65L80,35C80,18.458,66.542,5,50,5ZM75,65C75,78.785,63.785,90,50,90S25,78.785,25,65L25,35C25,21.215,36.215,10,50,10S75,21.215,75,35L75,65Z" stroke="none"></path><path d="M60.732,55.732L52.5,63.965L52.5,30C52.5,28.619,51.381,27.5,50,27.5S47.5,28.619,47.5,30L47.5,63.965L39.268,55.733C38.291,54.756,36.709,54.756,35.733,55.733S34.756,58.292,35.733,59.268L48.233,71.768C48.721,72.256,49.36,72.5,50,72.5S51.279,72.256,51.768,71.768L64.268,59.268C65.245,58.291,65.245,56.709,64.268,55.733S61.709,54.756,60.732,55.732Z" stroke="none"></path></g></svg>